G04*
G04 #@! TF.GenerationSoftware,Altium Limited,Altium Designer,18.0.12 (696)*
G04*
G04 Layer_Color=65535*
%FSAX24Y24*%
%MOIN*%
G70*
G01*
G75*
%ADD10C,0.0170*%
%ADD11C,0.0079*%
%ADD12C,0.0050*%
%ADD13C,0.0080*%
%ADD14C,0.0070*%
G36*
X001450Y007950D02*
X001550Y007950D01*
X001550Y008050D01*
X001450Y008050D01*
X001450Y007950D01*
X001450Y007950D02*
G37*
D10*
X000460Y000390D02*
G03*
X000460Y000390I-000080J000000D01*
G01*
D11*
X002754Y002460D02*
X002754Y002500D01*
X003246Y002460D02*
X003246Y002500D01*
X002500Y006400D02*
X002500Y007400D01*
X000500Y006400D02*
X002500Y006400D01*
X000500Y006400D02*
X000500Y007400D01*
X002500Y007400D01*
X003500Y006300D02*
X004500Y006300D01*
X003500Y000300D02*
X004500Y000300D01*
X003500Y000300D02*
X003500Y006300D01*
X004500Y000300D02*
X004500Y006300D01*
X004976Y007404D02*
X005015Y007404D01*
X004976Y007896D02*
X005015Y007896D01*
X004980Y008746D02*
X005020Y008746D01*
X004980Y008254D02*
X005020Y008254D01*
X002500Y005200D02*
X002500Y006200D01*
X000500Y005200D02*
X002500Y005200D01*
X000500Y005200D02*
X000500Y006200D01*
X002500Y006200D01*
D12*
X001135Y008250D02*
X001730Y008250D01*
X001135Y007655D02*
X001770Y007655D01*
X001350Y007800D02*
X001350Y008100D01*
D13*
X000500Y000750D02*
X000500Y001300D01*
X000500Y002700D02*
X000500Y003300D01*
X000500Y001300D02*
X000700Y001500D01*
X000500Y001700D02*
X000700Y001500D01*
X000500Y002300D02*
X000700Y002500D01*
X000500Y001700D02*
X000500Y002300D01*
X000500Y002700D02*
X000700Y002500D01*
X002300Y002500D02*
X002500Y002700D01*
X002500Y001700D02*
X002500Y002300D01*
X002300Y002500D02*
X002500Y002300D01*
X002300Y001500D02*
X002500Y001700D01*
X002300Y001500D02*
X002500Y001300D01*
X002500Y002700D02*
X002500Y003300D01*
X002500Y000750D02*
X002500Y001300D01*
X000500Y004250D02*
X000750Y004500D01*
X002250Y004500D02*
X002500Y004250D01*
X000750Y004500D02*
X002250Y004500D01*
X000500Y003700D02*
X000700Y003500D01*
X000500Y003700D02*
X000500Y004250D01*
X000500Y003300D02*
X000700Y003500D01*
X002300Y003500D02*
X002500Y003300D01*
X002500Y003700D02*
X002500Y004250D01*
X002300Y003500D02*
X002500Y003700D01*
X000750Y000500D02*
X002250Y000500D01*
X002500Y000750D01*
X000500Y000750D02*
X000750Y000500D01*
D14*
X002700Y003300D02*
X002700Y003670D01*
X002885Y003670D01*
X002947Y003608D01*
X002947Y003485D01*
X002885Y003423D01*
X002700Y003423D01*
X002823Y003423D02*
X002947Y003300D01*
X003070Y003608D02*
X003132Y003670D01*
X003255Y003670D01*
X003316Y003608D01*
X003316Y003547D01*
X003255Y003485D01*
X003193Y003485D01*
X003255Y003485D01*
X003316Y003423D01*
X003316Y003362D01*
X003255Y003300D01*
X003132Y003300D01*
X003070Y003362D01*
X003000Y006450D02*
X002630Y006450D01*
X002630Y006635D01*
X002692Y006697D01*
X002815Y006697D01*
X002877Y006635D01*
X002877Y006450D01*
X002877Y006573D02*
X003000Y006697D01*
X002630Y007066D02*
X002630Y006820D01*
X003000Y006820D01*
X003000Y007066D01*
X002815Y006820D02*
X002815Y006943D01*
X002692Y007436D02*
X002630Y007375D01*
X002630Y007251D01*
X002692Y007190D01*
X002753Y007190D01*
X002815Y007251D01*
X002815Y007375D01*
X002877Y007436D01*
X002938Y007436D01*
X003000Y007375D01*
X003000Y007251D01*
X002938Y007190D01*
X002630Y007806D02*
X002630Y007560D01*
X003000Y007560D01*
X003000Y007806D01*
X002815Y007560D02*
X002815Y007683D01*
X002630Y007930D02*
X002630Y008176D01*
X002630Y008053D01*
X003000Y008053D01*
X000550Y008400D02*
X000550Y008800D01*
X000750Y008800D01*
X000817Y008733D01*
X000817Y008600D01*
X000750Y008533D01*
X000550Y008533D01*
X001150Y008800D02*
X001017Y008800D01*
X000950Y008733D01*
X000950Y008467D01*
X001017Y008400D01*
X001150Y008400D01*
X001216Y008467D01*
X001216Y008733D01*
X001150Y008800D01*
X001350Y008800D02*
X001350Y008400D01*
X001483Y008533D01*
X001616Y008400D01*
X001616Y008800D01*
X002016Y008800D02*
X001750Y008800D01*
X001750Y008400D01*
X002016Y008400D01*
X001750Y008600D02*
X001883Y008600D01*
X002149Y008400D02*
X002149Y008800D01*
X002349Y008800D01*
X002416Y008733D01*
X002416Y008600D01*
X002349Y008533D01*
X002149Y008533D01*
X002283Y008533D02*
X002416Y008400D01*
X004897Y001858D02*
X004835Y001920D01*
X004712Y001920D01*
X004650Y001858D01*
X004650Y001612D01*
X004712Y001550D01*
X004835Y001550D01*
X004897Y001612D01*
X005020Y001920D02*
X005266Y001920D01*
X005143Y001920D01*
X005143Y001550D01*
X005636Y001858D02*
X005575Y001920D01*
X005451Y001920D01*
X005390Y001858D01*
X005390Y001797D01*
X005451Y001735D01*
X005575Y001735D01*
X005636Y001673D01*
X005636Y001612D01*
X005575Y001550D01*
X005451Y001550D01*
X005390Y001612D01*
X004650Y006020D02*
X004650Y005650D01*
X004835Y005650D01*
X004897Y005712D01*
X004897Y005958D01*
X004835Y006020D01*
X004650Y006020D01*
X005020Y006020D02*
X005266Y006020D01*
X005143Y006020D01*
X005143Y005650D01*
X005390Y005650D02*
X005390Y006020D01*
X005575Y006020D01*
X005636Y005958D01*
X005636Y005835D01*
X005575Y005773D01*
X005390Y005773D01*
X005513Y005773D02*
X005636Y005650D01*
X004650Y006020D02*
X004650Y005650D01*
X004835Y005650D01*
X004897Y005712D01*
X004897Y005958D01*
X004835Y006020D01*
X004650Y006020D01*
X005020Y006020D02*
X005266Y006020D01*
X005143Y006020D01*
X005143Y005650D01*
X005390Y005650D02*
X005390Y006020D01*
X005575Y006020D01*
X005636Y005958D01*
X005636Y005835D01*
X005575Y005773D01*
X005390Y005773D01*
X005513Y005773D02*
X005636Y005650D01*
X004650Y004650D02*
X004650Y005020D01*
X004835Y005020D01*
X004897Y004958D01*
X004897Y004835D01*
X004835Y004773D01*
X004650Y004773D01*
X004773Y004773D02*
X004897Y004650D01*
X005020Y005020D02*
X005266Y004650D01*
X005266Y005020D02*
X005020Y004650D01*
X004650Y003970D02*
X004897Y003970D01*
X004773Y003970D01*
X004773Y003600D01*
X005020Y003970D02*
X005266Y003600D01*
X005266Y003970D02*
X005020Y003600D01*
X004650Y002970D02*
X004650Y002723D01*
X004773Y002600D01*
X004897Y002723D01*
X004897Y002970D01*
X005266Y002908D02*
X005205Y002970D01*
X005082Y002970D01*
X005020Y002908D01*
X005020Y002662D01*
X005082Y002600D01*
X005205Y002600D01*
X005266Y002662D01*
X005636Y002908D02*
X005575Y002970D01*
X005451Y002970D01*
X005390Y002908D01*
X005390Y002662D01*
X005451Y002600D01*
X005575Y002600D01*
X005636Y002662D01*
X004897Y000908D02*
X004835Y000970D01*
X004712Y000970D01*
X004650Y000908D01*
X004650Y000662D01*
X004712Y000600D01*
X004835Y000600D01*
X004897Y000662D01*
X004897Y000785D01*
X004773Y000785D01*
X005020Y000600D02*
X005020Y000970D01*
X005266Y000600D01*
X005266Y000970D01*
X005390Y000970D02*
X005390Y000600D01*
X005575Y000600D01*
X005636Y000662D01*
X005636Y000908D01*
X005575Y000970D01*
X005390Y000970D01*
X003747Y006820D02*
X003623Y006820D01*
X003685Y006820D01*
X003685Y006512D01*
X003623Y006450D01*
X003562Y006450D01*
X003500Y006512D01*
X003870Y006450D02*
X003993Y006450D01*
X003932Y006450D01*
X003932Y006820D01*
X003870Y006758D01*
X003700Y007450D02*
X003700Y007820D01*
X003885Y007820D01*
X003947Y007758D01*
X003947Y007635D01*
X003885Y007573D01*
X003700Y007573D01*
X003823Y007573D02*
X003947Y007450D01*
X004316Y007450D02*
X004070Y007450D01*
X004316Y007697D01*
X004316Y007758D01*
X004255Y007820D01*
X004132Y007820D01*
X004070Y007758D01*
X003700Y008300D02*
X003700Y008670D01*
X003885Y008670D01*
X003947Y008608D01*
X003947Y008485D01*
X003885Y008423D01*
X003700Y008423D01*
X003823Y008423D02*
X003947Y008300D01*
X004070Y008300D02*
X004193Y008300D01*
X004132Y008300D01*
X004132Y008670D01*
X004070Y008608D01*
X002650Y004783D02*
X002650Y004550D01*
X002825Y004550D01*
X002825Y004667D01*
X002825Y004550D01*
X003000Y004550D01*
X002650Y004900D02*
X003000Y004900D01*
X003000Y005133D01*
X003000Y005250D02*
X002767Y005250D01*
X002650Y005366D01*
X002767Y005483D01*
X003000Y005483D01*
X002825Y005483D01*
X002825Y005250D01*
X002708Y005833D02*
X002650Y005775D01*
X002650Y005658D01*
X002708Y005600D01*
X002767Y005600D01*
X002825Y005658D01*
X002825Y005775D01*
X002883Y005833D01*
X002942Y005833D01*
X003000Y005775D01*
X003000Y005658D01*
X002942Y005600D01*
X002650Y005950D02*
X003000Y005950D01*
X002825Y005950D01*
X002825Y006183D01*
X002650Y006183D01*
X003000Y006183D01*
M02*
