G04*
G04 #@! TF.GenerationSoftware,Altium Limited,Altium Designer,18.0.12 (696)*
G04*
G04 Layer_Physical_Order=1*
G04 Layer_Color=255*
%FSAX24Y24*%
%MOIN*%
G70*
G01*
G75*
%ADD24R,0.0571X0.0453*%
%ADD25R,0.0600X0.0600*%
%ADD26R,0.0453X0.0571*%
%ADD27C,0.0120*%
%ADD28C,0.0150*%
%ADD29C,0.0100*%
%ADD30C,0.0200*%
%ADD31R,0.0591X0.0591*%
%ADD32C,0.0591*%
%ADD33R,0.0591X0.0591*%
%ADD34C,0.0680*%
%ADD35R,0.0680X0.0680*%
%ADD36C,0.0500*%
D24*
X003000Y002126D02*
D03*
X003000Y002834D02*
D03*
D25*
X002080Y007950D02*
D03*
X000820Y007950D02*
D03*
D26*
X005350Y007650D02*
D03*
X004641Y007650D02*
D03*
X004646Y008500D02*
D03*
X005354Y008500D02*
D03*
D27*
X004470Y001320D02*
X004950Y001800D01*
X003170Y001320D02*
X004470Y001320D01*
X002850Y001000D02*
X003170Y001320D01*
X004950Y001800D02*
X004950Y004390D01*
X004540Y004800D02*
X004950Y004390D01*
X004000Y004800D02*
X004540Y004800D01*
X002080Y007950D02*
X003450Y007950D01*
X004000Y008500D01*
X004646Y008500D01*
X004600Y007650D02*
X004641Y007650D01*
X003400Y007650D02*
X004600Y007650D01*
X003150Y007400D02*
X003400Y007650D01*
X001500Y007400D02*
X003150Y007400D01*
X001000Y006900D02*
X001500Y007400D01*
X002000Y001000D02*
X002850Y001000D01*
X001000Y006900D02*
X001500Y006400D01*
X001500Y003500D02*
X001500Y006400D01*
X001500Y003500D02*
X002000Y003000D01*
X000400Y003600D02*
X001000Y003000D01*
X000400Y003600D02*
X000400Y005100D01*
X001000Y005700D01*
X005350Y006650D02*
X005350Y007650D01*
X004500Y005800D02*
X005350Y006650D01*
X004000Y005800D02*
X004500Y005800D01*
D28*
X002834Y002834D02*
X003000Y002834D01*
X002000Y002000D02*
X002834Y002834D01*
X003000Y002126D02*
X003326Y002126D01*
X004000Y002800D01*
D29*
X005000Y008146D02*
X005354Y008500D01*
X005000Y007200D02*
X005000Y008146D01*
X004700Y006900D02*
X005000Y007200D01*
X002000Y006900D02*
X004700Y006900D01*
D30*
X001370Y008500D02*
X003200Y008500D01*
X000820Y007950D02*
X001370Y008500D01*
D31*
X001000Y006900D02*
D03*
X001000Y005700D02*
D03*
D32*
X002000Y006900D02*
D03*
X004000Y001800D02*
D03*
X004000Y002800D02*
D03*
X004000Y003800D02*
D03*
X004000Y004800D02*
D03*
X004000Y005800D02*
D03*
X002000Y005700D02*
D03*
D33*
X004000Y000800D02*
D03*
D34*
X002000Y003000D02*
D03*
X001000Y003000D02*
D03*
X002000Y002000D02*
D03*
X001000Y002000D02*
D03*
X002000Y001000D02*
D03*
X001000Y004000D02*
D03*
X002000Y004000D02*
D03*
D35*
X001000Y001000D02*
D03*
D36*
X003200Y008500D02*
D03*
M02*
