G04*
G04 #@! TF.GenerationSoftware,Altium Limited,Altium Designer,18.0.12 (696)*
G04*
G04 Layer_Physical_Order=2*
G04 Layer_Color=16711680*
%FSAX24Y24*%
%MOIN*%
G70*
G01*
G75*
%ADD27C,0.0120*%
%ADD30C,0.0200*%
%ADD31R,0.0591X0.0591*%
%ADD32C,0.0591*%
%ADD33R,0.0591X0.0591*%
%ADD34C,0.0680*%
%ADD35R,0.0680X0.0680*%
%ADD36C,0.0500*%
D27*
X001650Y004650D02*
X003150Y004650D01*
X001000Y004000D02*
X001650Y004650D01*
X003150Y004650D02*
X004000Y003800D01*
D30*
X003200Y008500D02*
X005000Y006700D01*
X005000Y003100D02*
X005000Y006700D01*
X004700Y002800D02*
X005000Y003100D01*
X004000Y002800D02*
X004700Y002800D01*
X001350Y005050D02*
X002000Y005700D01*
X000850Y005050D02*
X001350Y005050D01*
X000250Y004450D02*
X000850Y005050D01*
X000250Y001750D02*
X000250Y004450D01*
X000250Y001750D02*
X001000Y001000D01*
X001700Y000300D01*
X003500Y000300D01*
X004000Y000800D01*
X002000Y005700D02*
X002000Y006900D01*
X002800Y004000D02*
X004000Y002800D01*
X002000Y004000D02*
X002800Y004000D01*
D31*
X001000Y006900D02*
D03*
X001000Y005700D02*
D03*
D32*
X002000Y006900D02*
D03*
X004000Y001800D02*
D03*
X004000Y002800D02*
D03*
X004000Y003800D02*
D03*
X004000Y004800D02*
D03*
X004000Y005800D02*
D03*
X002000Y005700D02*
D03*
D33*
X004000Y000800D02*
D03*
D34*
X002000Y003000D02*
D03*
X001000Y003000D02*
D03*
X002000Y002000D02*
D03*
X001000Y002000D02*
D03*
X002000Y001000D02*
D03*
X001000Y004000D02*
D03*
X002000Y004000D02*
D03*
D35*
X001000Y001000D02*
D03*
D36*
X003200Y008500D02*
D03*
M02*
